<svg xmlns="http://www.w3.org/2000/svg" version="1.1" xmlns:xlink="http://www.w3.org/1999/xlink" xmlns:svgjs="http://svgjs.com/svgjs" width="1440" height="560" preserveAspectRatio="none" viewBox="0 0 1440 560"><g mask="url(&quot;#SvgjsMask1156&quot;)" fill="none"><rect width="1440" height="560" x="0" y="0" fill="rgba(0, 0, 0, 1)"></rect><path d="M424.95544224070323 187.06146874578496L560.2997629526585 175.22037501087195 548.4586692177455 39.87605429891664 413.11434850579025 51.71714803382966z" fill="rgba(255, 255, 255, 0.38)" className="triangle-float2"></path><path d="M143.32453741218762 420.1257341426284L247.10827204750163 477.6539976445551 200.85280091411434 316.3419995073144z" fill="rgba(255, 255, 255, 0.38)" className="triangle-float2"></path><path d="M1091.1052402019745 340.76106095023954L1182.6807803813635 307.43029013809326 1057.7744693898283 249.18552077085062z" fill="rgba(255, 255, 255, 0.38)" className="triangle-float3"></path><path d="M1151.6626917142673 386.88363475112135L1264.8324355065038 417.2073762078882 1181.9864331710342 273.7138909588848z" fill="rgba(255, 255, 255, 0.38)" className="triangle-float3"></path><path d="M860.0712289340155 444.2104542823422L866.3834441386938 534.4793372649896 998.6306610103256 479.87657296664844z" fill="rgba(255, 255, 255, 0.38)" className="triangle-float2"></path><path d="M14.761,541.415C29.35,541.386,46.606,542.422,53.907,529.791C61.211,517.155,52.442,502.263,44.451,490.05C37.439,479.334,27.552,470.592,14.761,469.966C0.83,469.284,-12.767,475.219,-20.427,486.875C-28.918,499.797,-33.036,516.954,-24.654,529.947C-16.703,542.271,0.095,541.444,14.761,541.415" fill="rgba(255, 255, 255, 0.38)" className="triangle-float2"></path><path d="M843.1705843687514 534.8485729670631L788.7010722424371 406.1856621752196 713.5070370683317 502.429638287148z" fill="rgba(255, 255, 255, 0.38)" className="triangle-float1"></path><path d="M1004.0551877269199-26.214742916433046L991.999151116814 59.568414951070515 1077.7823089843175 71.62445156117647 1089.8383455944236-14.158706306327078z" fill="rgba(255, 255, 255, 0.38)" className="triangle-float3"></path><path d="M459.1337660649517 559.5896848104558L498.8847488822903 400.1572008373631 339.45226490919765 360.4062180200246 299.70128209185907 519.8387019931172z" fill="rgba(255, 255, 255, 0.38)" className="triangle-float1"></path></g><defs><mask id="SvgjsMask1156"><rect width="1440" height="560" fill="#ffffff"></rect></mask><style>
            @keyframes float1 {
                0%{transform: translate(0, 0)}
                50%{transform: translate(-10px, 0)}
                100%{transform: translate(0, 0)}
            }

            .triangle-float1 {
                animation: float1 5s infinite;
            }

            @keyframes float2 {
                0%{transform: translate(0, 0)}
                50%{transform: translate(-5px, -5px)}
                100%{transform: translate(0, 0)}
            }

            .triangle-float2 {
                animation: float2 4s infinite;
            }

            @keyframes float3 {
                0%{transform: translate(0, 0)}
                50%{transform: translate(0, -10px)}
                100%{transform: translate(0, 0)}
            }

            .triangle-float3 {
                animation: float3 6s infinite;
            }
        </style></defs></svg>